<svg width="168" height="142" viewBox="0 0 168 142" fill="none" xmlns="http://www.w3.org/2000/svg">
<rect x="29" y="32" width="75" height="87" fill="black"/>
<rect x="29" y="32" width="113" height="87" fill="black"/>
<rect x="45" y="43" width="78" height="87" fill="black"/>
<rect x="45" y="16" width="78" height="87" fill="black"/>
<path d="M64.5013 0H58.0508V6.45051H64.5013V0Z" fill="#182463"/>
<path d="M70.9544 0H64.5039V6.45051H70.9544V0Z" fill="#182463"/>
<path d="M77.4036 0H70.9531V6.45051H77.4036V0Z" fill="#182463"/>
<path d="M83.8568 0H77.4062V6.45051H83.8568V0Z" fill="#182463"/>
<path d="M90.3021 0H83.8516V6.45051H90.3021V0Z" fill="#182463"/>
<path d="M51.6029 6.45117H45.1523V12.9017H51.6029V6.45117Z" fill="#182463"/>
<path d="M58.0482 6.45117H51.5977V12.9017H58.0482V6.45117Z" fill="#182463"/>
<path d="M64.5013 6.45117H58.0508V12.9017H64.5013V6.45117Z" fill="#BBAEF9"/>
<path d="M70.9544 6.45117H64.5039V12.9017H70.9544V6.45117Z" fill="#BBAEF9"/>
<path d="M77.4036 6.45117H70.9531V12.9017H77.4036V6.45117Z" fill="#BBAEF9"/>
<path d="M83.8568 6.45117H77.4062V12.9017H83.8568V6.45117Z" fill="#BBAEF9"/>
<path d="M90.3021 6.45117H83.8516V12.9017H90.3021V6.45117Z" fill="#BBAEF9"/>
<path d="M45.1497 12.9014H38.6992V19.3519H45.1497V12.9014Z" fill="#182463"/>
<path d="M51.6029 12.9014H45.1523V19.3519H51.6029V12.9014Z" fill="#BBAEF9"/>
<path d="M58.0482 12.9014H51.5977V19.3519H58.0482V12.9014Z" fill="#BBAEF9"/>
<path d="M64.5013 12.9014H58.0508V19.3519H64.5013V12.9014Z" fill="#E2C7FF"/>
<path d="M70.9544 12.9014H64.5039V19.3519H70.9544V12.9014Z" fill="#E2C7FF"/>
<path d="M77.4036 12.9014H70.9531V19.3519H77.4036V12.9014Z" fill="#E2C7FF"/>
<path d="M83.8568 12.9014H77.4062V19.3519H83.8568V12.9014Z" fill="#E2C7FF"/>
<path d="M90.3021 12.9014H83.8516V19.3519H90.3021V12.9014Z" fill="#E2C7FF"/>
<path d="M38.7005 19.3516H32.25V25.8021H38.7005V19.3516Z" fill="#182463"/>
<path d="M45.1497 19.3516H38.6992V25.8021H45.1497V19.3516Z" fill="#BBAEF9"/>
<path d="M51.6029 19.3516H45.1523V25.8021H51.6029V19.3516Z" fill="#BBAEF9"/>
<path d="M58.0482 19.3516H51.5977V25.8021H58.0482V19.3516Z" fill="#E2C7FF"/>
<path d="M32.2513 25.8018H25.8008V32.2523H32.2513V25.8018Z" fill="#182463"/>
<path d="M38.7005 25.8018H32.25V32.2523H38.7005V25.8018Z" fill="#BBAEF9"/>
<path d="M45.1497 25.8018H38.6992V32.2523H45.1497V25.8018Z" fill="#E2C7FF"/>
<path d="M51.6029 25.8018H45.1523V32.2523H51.6029V25.8018Z" fill="#E2C7FF"/>
<path d="M25.8021 32.2529H19.3516V38.7034H25.8021V32.2529Z" fill="#182463"/>
<path d="M32.2513 32.2529H25.8008V38.7034H32.2513V32.2529Z" fill="#BBAEF9"/>
<path d="M38.7005 32.2529H32.25V38.7034H38.7005V32.2529Z" fill="#BBAEF9"/>
<path d="M45.1497 32.2529H38.6992V38.7034H45.1497V32.2529Z" fill="#E2C7FF"/>
<path d="M25.8021 38.7031H19.3516V45.1536H25.8021V38.7031Z" fill="#182463"/>
<path d="M32.2513 38.7031H25.8008V45.1536H32.2513V38.7031Z" fill="#BBAEF9"/>
<path d="M38.7005 38.7031H32.25V45.1536H38.7005V38.7031Z" fill="#E2C7FF"/>
<path d="M19.3489 45.1533H12.8984V51.6038H19.3489V45.1533Z" fill="#182463"/>
<path d="M25.8021 45.1533H19.3516V51.6038H25.8021V45.1533Z" fill="#BBAEF9"/>
<path d="M32.2513 45.1533H25.8008V51.6038H32.2513V45.1533Z" fill="#E2C7FF"/>
<path d="M19.3489 51.6045H12.8984V58.055H19.3489V51.6045Z" fill="#182463"/>
<path d="M25.8021 51.6045H19.3516V58.055H25.8021V51.6045Z" fill="#BBAEF9"/>
<path d="M32.2513 51.6045H25.8008V58.055H32.2513V51.6045Z" fill="#E2C7FF"/>
<path d="M19.3489 58.0547H12.8984V64.5052H19.3489V58.0547Z" fill="#182463"/>
<path d="M25.8021 58.0547H19.3516V64.5052H25.8021V58.0547Z" fill="#BBAEF9"/>
<path d="M32.2513 58.0547H25.8008V64.5052H32.2513V58.0547Z" fill="#E2C7FF"/>
<path d="M19.3489 64.5049H12.8984V70.9554H19.3489V64.5049Z" fill="#182463"/>
<path d="M25.8021 64.5049H19.3516V70.9554H25.8021V64.5049Z" fill="#BBAEF9"/>
<path d="M32.2513 64.5049H25.8008V70.9554H32.2513V64.5049Z" fill="#E2C7FF"/>
<path d="M19.3489 70.9551H12.8984V77.4056H19.3489V70.9551Z" fill="#182463"/>
<path d="M25.8021 70.9551H19.3516V77.4056H25.8021V70.9551Z" fill="#BBAEF9"/>
<path d="M32.2513 70.9551H25.8008V77.4056H32.2513V70.9551Z" fill="#E2C7FF"/>
<path d="M103.214 0H109.664V6.45051H103.214V0Z" fill="#182463"/>
<path d="M96.7604 0H103.211V6.45051H96.7604V0Z" fill="#182463"/>
<path d="M90.3112 0H96.7617V6.45051H90.3112V0Z" fill="#182463"/>
<path d="M83.8581 0H90.3086V6.45051H83.8581V0Z" fill="#182463"/>
<path d="M77.4128 0H83.8633V6.45051H77.4128V0Z" fill="#182463"/>
<path d="M116.112 6.4502H122.562V12.9007H116.112V6.4502Z" fill="#182463"/>
<path d="M109.667 6.4502H116.117V12.9007H109.667V6.4502Z" fill="#182463"/>
<path d="M103.214 6.4502H109.664V12.9007H103.214V6.4502Z" fill="#BBAEF9"/>
<path d="M96.7604 6.4502H103.211V12.9007H96.7604V6.4502Z" fill="#BBAEF9"/>
<path d="M90.3112 6.4502H96.7617V12.9007H90.3112V6.4502Z" fill="#BBAEF9"/>
<path d="M83.8581 6.4502H90.3086V12.9007H83.8581V6.4502Z" fill="#BBAEF9"/>
<path d="M77.4128 6.4502H83.8633V12.9007H77.4128V6.4502Z" fill="#BBAEF9"/>
<path d="M122.565 12.9014H129.016V19.3519H122.565V12.9014Z" fill="#182463"/>
<path d="M116.112 12.9014H122.562V19.3519H116.112V12.9014Z" fill="#BBAEF9"/>
<path d="M109.667 12.9014H116.117V19.3519H109.667V12.9014Z" fill="#BBAEF9"/>
<path d="M103.214 12.9014H109.664V19.3519H103.214V12.9014Z" fill="#E2C7FF"/>
<path d="M96.7604 12.9014H103.211V19.3519H96.7604V12.9014Z" fill="#E2C7FF"/>
<path d="M90.3112 12.9014H96.7617V19.3519H90.3112V12.9014Z" fill="#E2C7FF"/>
<path d="M83.8581 12.9014H90.3086V19.3519H83.8581V12.9014Z" fill="#E2C7FF"/>
<path d="M77.4128 12.9014H83.8633V19.3519H77.4128V12.9014Z" fill="#E2C7FF"/>
<path d="M129.014 19.3516H135.465V25.8021H129.014V19.3516Z" fill="#182463"/>
<path d="M122.565 19.3516H129.016V25.8021H122.565V19.3516Z" fill="#BBAEF9"/>
<path d="M116.112 19.3516H122.562V25.8021H116.112V19.3516Z" fill="#BBAEF9"/>
<path d="M109.667 19.3516H116.117V25.8021H109.667V19.3516Z" fill="#E2C7FF"/>
<path d="M135.464 25.8018H141.914V32.2523H135.464V25.8018Z" fill="#182463"/>
<path d="M129.014 25.8018H135.465V32.2523H129.014V25.8018Z" fill="#BBAEF9"/>
<path d="M122.565 25.8018H129.016V32.2523H122.565V25.8018Z" fill="#E2C7FF"/>
<path d="M116.112 25.8018H122.562V32.2523H116.112V25.8018Z" fill="#E2C7FF"/>
<path d="M141.913 32.252H148.363V38.7025H141.913V32.252Z" fill="#182463"/>
<path d="M135.464 32.252H141.914V38.7025H135.464V32.252Z" fill="#BBAEF9"/>
<path d="M129.014 32.252H135.465V38.7025H129.014V32.252Z" fill="#BBAEF9"/>
<path d="M122.565 32.252H129.016V38.7025H122.565V32.252Z" fill="#E2C7FF"/>
<path d="M141.913 38.7031H148.363V45.1536H141.913V38.7031Z" fill="#182463"/>
<path d="M135.464 38.7031H141.914V45.1536H135.464V38.7031Z" fill="#BBAEF9"/>
<path d="M129.014 38.7031H135.465V45.1536H129.014V38.7031Z" fill="#E2C7FF"/>
<path d="M148.366 45.1533H154.816V51.6038H148.366V45.1533Z" fill="#182463"/>
<path d="M141.913 45.1533H148.363V51.6038H141.913V45.1533Z" fill="#BBAEF9"/>
<path d="M135.464 45.1533H141.914V51.6038H135.464V45.1533Z" fill="#E2C7FF"/>
<path d="M148.366 51.6045H154.816V58.055H148.366V51.6045Z" fill="#182463"/>
<path d="M141.913 51.6045H148.363V58.055H141.913V51.6045Z" fill="#BBAEF9"/>
<path d="M135.464 51.6045H141.914V58.055H135.464V51.6045Z" fill="#E2C7FF"/>
<path d="M148.366 58.0547H154.816V64.5052H148.366V58.0547Z" fill="#182463"/>
<path d="M141.913 58.0547H148.363V64.5052H141.913V58.0547Z" fill="#BBAEF9"/>
<path d="M135.464 58.0547H141.914V64.5052H135.464V58.0547Z" fill="#E2C7FF"/>
<path d="M148.366 64.5049H154.816V70.9554H148.366V64.5049Z" fill="#182463"/>
<path d="M141.913 64.5049H148.363V70.9554H141.913V64.5049Z" fill="#BBAEF9"/>
<path d="M135.464 64.5049H141.914V70.9554H135.464V64.5049Z" fill="#E2C7FF"/>
<path d="M148.366 70.9551H154.816V77.4056H148.366V70.9551Z" fill="#182463"/>
<path d="M141.913 70.9551H148.363V77.4056H141.913V70.9551Z" fill="#BBAEF9"/>
<path d="M135.464 70.9551H141.914V77.4056H135.464V70.9551Z" fill="#E2C7FF"/>
<path d="M64.5013 141.912H58.0508V135.462H64.5013V141.912Z" fill="#182463"/>
<path d="M70.9544 141.912H64.5039V135.462H70.9544V141.912Z" fill="#182463"/>
<path d="M77.4036 141.912H70.9531V135.462H77.4036V141.912Z" fill="#182463"/>
<path d="M83.8568 141.912H77.4062V135.462H83.8568V141.912Z" fill="#182463"/>
<path d="M90.3021 141.912H83.8516V135.462H90.3021V141.912Z" fill="#182463"/>
<path d="M51.6029 135.461H45.1523V129.01H51.6029V135.461Z" fill="#182463"/>
<path d="M58.0482 135.461H51.5977V129.01H58.0482V135.461Z" fill="#182463"/>
<path d="M64.5013 135.461H58.0508V129.01H64.5013V135.461Z" fill="#BBAEF9"/>
<path d="M70.9544 135.461H64.5039V129.01H70.9544V135.461Z" fill="#BBAEF9"/>
<path d="M77.4036 135.461H70.9531V129.01H77.4036V135.461Z" fill="#BBAEF9"/>
<path d="M83.8568 135.461H77.4062V129.01H83.8568V135.461Z" fill="#BBAEF9"/>
<path d="M90.3021 135.461H83.8516V129.01H90.3021V135.461Z" fill="#BBAEF9"/>
<path d="M45.1497 129.011H38.6992V122.56H45.1497V129.011Z" fill="#182463"/>
<path d="M51.6029 129.011H45.1523V122.56H51.6029V129.011Z" fill="#BBAEF9"/>
<path d="M58.0482 129.011H51.5977V122.56H58.0482V129.011Z" fill="#BBAEF9"/>
<path d="M64.5013 129.011H58.0508V122.56H64.5013V129.011Z" fill="#E2C7FF"/>
<path d="M70.9544 129.011H64.5039V122.56H70.9544V129.011Z" fill="#E2C7FF"/>
<path d="M77.4036 129.011H70.9531V122.56H77.4036V129.011Z" fill="#E2C7FF"/>
<path d="M83.8568 129.011H77.4062V122.56H83.8568V129.011Z" fill="#E2C7FF"/>
<path d="M90.3021 129.011H83.8516V122.56H90.3021V129.011Z" fill="#E2C7FF"/>
<path d="M38.7005 122.561H32.25V116.11H38.7005V122.561Z" fill="#182463"/>
<path d="M45.1497 122.561H38.6992V116.11H45.1497V122.561Z" fill="#BBAEF9"/>
<path d="M51.6029 122.561H45.1523V116.11H51.6029V122.561Z" fill="#BBAEF9"/>
<path d="M58.0482 122.561H51.5977V116.11H58.0482V122.561Z" fill="#E2C7FF"/>
<path d="M32.2513 116.11H25.8008V109.66H32.2513V116.11Z" fill="#182463"/>
<path d="M38.7005 116.11H32.25V109.66H38.7005V116.11Z" fill="#BBAEF9"/>
<path d="M45.1497 116.11H38.6992V109.66H45.1497V116.11Z" fill="#E2C7FF"/>
<path d="M51.6029 116.11H45.1523V109.66H51.6029V116.11Z" fill="#E2C7FF"/>
<path d="M25.8021 109.659H19.3516V103.209H25.8021V109.659Z" fill="#182463"/>
<path d="M32.2513 109.659H25.8008V103.209H32.2513V109.659Z" fill="#BBAEF9"/>
<path d="M38.7005 109.659H32.25V103.209H38.7005V109.659Z" fill="#BBAEF9"/>
<path d="M45.1497 109.659H38.6992V103.209H45.1497V109.659Z" fill="#E2C7FF"/>
<path d="M25.8021 103.209H19.3516V96.7585H25.8021V103.209Z" fill="#182463"/>
<path d="M32.2513 103.209H25.8008V96.7585H32.2513V103.209Z" fill="#BBAEF9"/>
<path d="M38.7005 103.209H32.25V96.7585H38.7005V103.209Z" fill="#E2C7FF"/>
<path d="M19.3489 96.7588H12.8984V90.3083H19.3489V96.7588Z" fill="#182463"/>
<path d="M25.8021 96.7588H19.3516V90.3083H25.8021V96.7588Z" fill="#BBAEF9"/>
<path d="M32.2513 96.7588H25.8008V90.3083H32.2513V96.7588Z" fill="#E2C7FF"/>
<path d="M19.3489 90.3076H12.8984V83.8571H19.3489V90.3076Z" fill="#182463"/>
<path d="M25.8021 90.3076H19.3516V83.8571H25.8021V90.3076Z" fill="#BBAEF9"/>
<path d="M32.2513 90.3076H25.8008V83.8571H32.2513V90.3076Z" fill="#E2C7FF"/>
<path d="M19.3489 83.8574H12.8984V77.4069H19.3489V83.8574Z" fill="#182463"/>
<path d="M25.8021 83.8574H19.3516V77.4069H25.8021V83.8574Z" fill="#BBAEF9"/>
<path d="M32.2513 83.8574H25.8008V77.4069H32.2513V83.8574Z" fill="#E2C7FF"/>
<path d="M19.3489 77.4072H12.8984V70.9567H19.3489V77.4072Z" fill="#182463"/>
<path d="M25.8021 77.4072H19.3516V70.9567H25.8021V77.4072Z" fill="#BBAEF9"/>
<path d="M32.2513 77.4072H25.8008V70.9567H32.2513V77.4072Z" fill="#E2C7FF"/>
<path d="M19.3489 70.957H12.8984V64.5065H19.3489V70.957Z" fill="#182463"/>
<path d="M25.8021 70.957H19.3516V64.5065H25.8021V70.957Z" fill="#BBAEF9"/>
<path d="M32.2513 70.957H25.8008V64.5065H32.2513V70.957Z" fill="#E2C7FF"/>
<path d="M103.214 141.912H109.664V135.462H103.214V141.912Z" fill="#182463"/>
<path d="M96.7604 141.912H103.211V135.462H96.7604V141.912Z" fill="#182463"/>
<path d="M90.3112 141.912H96.7617V135.462H90.3112V141.912Z" fill="#182463"/>
<path d="M83.8581 141.912H90.3086V135.462H83.8581V141.912Z" fill="#182463"/>
<path d="M77.4128 141.912H83.8633V135.462H77.4128V141.912Z" fill="#182463"/>
<path d="M116.112 135.461H122.562V129.01H116.112V135.461Z" fill="#182463"/>
<path d="M109.667 135.461H116.117V129.01H109.667V135.461Z" fill="#182463"/>
<path d="M103.214 135.461H109.664V129.01H103.214V135.461Z" fill="#BBAEF9"/>
<path d="M96.7604 135.461H103.211V129.01H96.7604V135.461Z" fill="#BBAEF9"/>
<path d="M90.3112 135.461H96.7617V129.01H90.3112V135.461Z" fill="#BBAEF9"/>
<path d="M83.8581 135.461H90.3086V129.01H83.8581V135.461Z" fill="#BBAEF9"/>
<path d="M77.4128 135.461H83.8633V129.01H77.4128V135.461Z" fill="#BBAEF9"/>
<path d="M122.565 129.011H129.016V122.56H122.565V129.011Z" fill="#182463"/>
<path d="M116.112 129.011H122.562V122.56H116.112V129.011Z" fill="#BBAEF9"/>
<path d="M109.667 129.011H116.117V122.56H109.667V129.011Z" fill="#BBAEF9"/>
<path d="M103.214 129.011H109.664V122.56H103.214V129.011Z" fill="#E2C7FF"/>
<path d="M96.7604 129.011H103.211V122.56H96.7604V129.011Z" fill="#E2C7FF"/>
<path d="M90.3112 129.011H96.7617V122.56H90.3112V129.011Z" fill="#E2C7FF"/>
<path d="M83.8581 129.011H90.3086V122.56H83.8581V129.011Z" fill="#E2C7FF"/>
<path d="M77.4128 129.011H83.8633V122.56H77.4128V129.011Z" fill="#E2C7FF"/>
<path d="M129.014 122.561H135.465V116.11H129.014V122.561Z" fill="#182463"/>
<path d="M122.565 122.561H129.016V116.11H122.565V122.561Z" fill="#BBAEF9"/>
<path d="M116.112 122.561H122.562V116.11H116.112V122.561Z" fill="#BBAEF9"/>
<path d="M109.667 122.561H116.117V116.11H109.667V122.561Z" fill="#E2C7FF"/>
<path d="M135.464 116.11H141.914V109.66H135.464V116.11Z" fill="#182463"/>
<path d="M129.014 116.11H135.465V109.66H129.014V116.11Z" fill="#BBAEF9"/>
<path d="M122.565 116.11H129.016V109.66H122.565V116.11Z" fill="#E2C7FF"/>
<path d="M116.112 116.11H122.562V109.66H116.112V116.11Z" fill="#E2C7FF"/>
<path d="M141.913 109.659H148.363V103.209H141.913V109.659Z" fill="#182463"/>
<path d="M135.464 109.659H141.914V103.209H135.464V109.659Z" fill="#BBAEF9"/>
<path d="M129.014 109.659H135.465V103.209H129.014V109.659Z" fill="#BBAEF9"/>
<path d="M122.565 109.659H129.016V103.209H122.565V109.659Z" fill="#E2C7FF"/>
<path d="M141.913 103.209H148.363V96.7585H141.913V103.209Z" fill="#182463"/>
<path d="M135.464 103.209H141.914V96.7585H135.464V103.209Z" fill="#BBAEF9"/>
<path d="M129.014 103.209H135.465V96.7585H129.014V103.209Z" fill="#E2C7FF"/>
<path d="M148.366 96.7588H154.816V90.3083H148.366V96.7588Z" fill="#182463"/>
<path d="M141.913 96.7588H148.363V90.3083H141.913V96.7588Z" fill="#BBAEF9"/>
<path d="M135.464 96.7588H141.914V90.3083H135.464V96.7588Z" fill="#E2C7FF"/>
<path d="M148.366 90.3076H154.816V83.8571H148.366V90.3076Z" fill="#182463"/>
<path d="M141.913 90.3076H148.363V83.8571H141.913V90.3076Z" fill="#BBAEF9"/>
<path d="M135.464 90.3076H141.914V83.8571H135.464V90.3076Z" fill="#E2C7FF"/>
<path d="M148.366 83.8574H154.816V77.4069H148.366V83.8574Z" fill="#182463"/>
<path d="M141.913 83.8574H148.363V77.4069H141.913V83.8574Z" fill="#BBAEF9"/>
<path d="M135.464 83.8574H141.914V77.4069H135.464V83.8574Z" fill="#E2C7FF"/>
<path d="M148.366 77.4062H154.816V70.9557H148.366V77.4062Z" fill="#182463"/>
<path d="M141.913 77.4062H148.363V70.9557H141.913V77.4062Z" fill="#BBAEF9"/>
<path d="M135.464 77.4062H141.914V70.9557H135.464V77.4062Z" fill="#E2C7FF"/>
<path d="M148.366 70.957H154.816V64.5065H148.366V70.957Z" fill="#182463"/>
<path d="M141.913 70.957H148.363V64.5065H141.913V70.957Z" fill="#BBAEF9"/>
<path d="M135.464 70.957H141.914V64.5065H135.464V70.957Z" fill="#E2C7FF"/>
<path d="M154.809 70.9551H161.259V77.4056H154.809V70.9551Z" fill="#182463"/>
<path d="M148.355 70.9551H154.806V77.4056H148.355V70.9551Z" fill="#BAAEF9"/>
<path d="M161.258 77.4053H167.708V83.8558H161.258V77.4053Z" fill="#182463"/>
<path d="M135.457 77.4053H77.4023V83.8558H135.457V77.4053Z" fill="#182462"/>
<path d="M167.709 83.8564H77.4023V90.307H167.709V83.8564Z" fill="#E3C8FF"/>
<path d="M103.204 96.7568H77.4023V103.207H103.204V96.7568Z" fill="#182462"/>
<path d="M122.556 90.3063H77.4023V96.7568H122.556V90.3063ZM148.358 77.4053H161.259V83.8558H148.358V77.4053Z" fill="#BAAEF9"/>
<path d="M135.457 83.8558H148.358V77.4053H135.457V83.8558Z" fill="#E2C7FF"/>
<path d="M161.258 90.3066H122.555V96.7571H161.258V90.3066Z" fill="#182462"/>
<path d="M12.9023 70.9551H6.45184V77.4056H12.9023V70.9551Z" fill="#182463"/>
<path d="M19.3555 70.9551H12.905V77.4056H19.3555V70.9551Z" fill="#BAAEF9"/>
<path d="M6.45312 77.4062H0.00261736V83.8568H6.45312V77.4062Z" fill="#182463"/>
<path d="M32.254 77.4062H90.3086V83.8568H32.254V77.4062Z" fill="#182462"/>
<path d="M0.00148773 83.8564H90.3086V90.307H0.00148773V83.8564Z" fill="#E3C8FF"/>
<path d="M64.5066 96.7568H90.3086V103.207H64.5066V96.7568Z" fill="#182462"/>
<path d="M45.155 90.3073H90.3086V96.7578H45.155V90.3073ZM19.353 77.4062H6.452V83.8568H19.353V77.4062Z" fill="#BAAEF9"/>
<path d="M32.2539 83.8568H19.3529V77.4062H32.2539V83.8568Z" fill="#E2C7FF"/>
<path d="M6.45321 90.3066H45.1562V96.7571H6.45321V90.3066Z" fill="#182462"/>
</svg>
