<svg width="300" height="300" viewBox="0 0 300 300" fill="none" xmlns="http://www.w3.org/2000/svg">
<circle cx="150" cy="150" r="147" stroke="black" stroke-width="6"/>
<circle cx="150" cy="150" r="145" fill="black" stroke="#393939" stroke-width="2"/>
<mask id="mask0_102_21" style="mask-type:alpha" maskUnits="userSpaceOnUse" x="11" y="11" width="278" height="278">
<rect x="148" y="11" width="4" height="38" fill="#C4C4C4"/>
<rect x="148" y="251" width="4" height="38" fill="#C4C4C4"/>
<rect x="11" y="152" width="4" height="38" transform="rotate(-90 11 152)" fill="#C4C4C4"/>
<rect x="251" y="152" width="4" height="38" transform="rotate(-90 251 152)" fill="#C4C4C4"/>
<rect x="82.2321" y="271.377" width="4" height="38" transform="rotate(-150 82.2321 271.377)" fill="#C4C4C4"/>
<rect x="202.232" y="63.5315" width="4" height="38" transform="rotate(-150 202.232 63.5315)" fill="#C4C4C4"/>
<rect x="30.6224" y="221.232" width="4" height="38" transform="rotate(-120 30.6224 221.232)" fill="#C4C4C4"/>
<rect x="238.469" y="101.232" width="4" height="38" transform="rotate(-120 238.469 101.232)" fill="#C4C4C4"/>
<rect x="28.6224" y="82.2321" width="4" height="38" transform="rotate(-60 28.6224 82.2321)" fill="#C4C4C4"/>
<rect x="236.469" y="202.232" width="4" height="38" transform="rotate(-60 236.469 202.232)" fill="#C4C4C4"/>
<rect x="221.232" y="269.377" width="4" height="38" transform="rotate(150 221.232 269.377)" fill="#C4C4C4"/>
<rect x="101.232" y="61.5315" width="4" height="38" transform="rotate(150 101.232 61.5315)" fill="#C4C4C4"/>
</mask>
<g mask="url(#mask0_102_21)">
<mask id="mask1_102_21" style="mask-type:alpha" maskUnits="userSpaceOnUse" x="-5" y="-9" width="324" height="316">
<rect x="-5" y="-9" width="324" height="316" fill="url(#paint0_linear_102_21)"/>
</mask>
<g mask="url(#mask1_102_21)">
<rect x="-37" y="-41" width="387" height="359" fill="#F584FF"/>
<g filter="url(#filter0_f_102_21)">
<circle cx="32.5" cy="67.5" r="117.5" fill="#FF84CE"/>
</g>
<g filter="url(#filter1_f_102_21)">
<circle cx="299.5" cy="189.5" r="117.5" fill="#84A7FF"/>
</g>
<g filter="url(#filter2_f_102_21)">
<circle cx="63.5" cy="295.5" r="117.5" fill="#E09191"/>
</g>
</g>
</g>
<rect x="150" y="147" width="130" height="6" fill="#A3A3A3"/>
<rect x="99.7954" y="195.962" width="68" height="6" transform="rotate(-45 99.7954 195.962)" fill="white"/>
<circle cx="150" cy="150" r="5" fill="white"/>
<defs>
<filter id="filter0_f_102_21" x="-185" y="-150" width="435" height="435" filterUnits="userSpaceOnUse" color-interpolation-filters="sRGB">
<feFlood flood-opacity="0" result="BackgroundImageFix"/>
<feBlend mode="normal" in="SourceGraphic" in2="BackgroundImageFix" result="shape"/>
<feGaussianBlur stdDeviation="50" result="effect1_foregroundBlur_102_21"/>
</filter>
<filter id="filter1_f_102_21" x="82" y="-28" width="435" height="435" filterUnits="userSpaceOnUse" color-interpolation-filters="sRGB">
<feFlood flood-opacity="0" result="BackgroundImageFix"/>
<feBlend mode="normal" in="SourceGraphic" in2="BackgroundImageFix" result="shape"/>
<feGaussianBlur stdDeviation="50" result="effect1_foregroundBlur_102_21"/>
</filter>
<filter id="filter2_f_102_21" x="-154" y="78" width="435" height="435" filterUnits="userSpaceOnUse" color-interpolation-filters="sRGB">
<feFlood flood-opacity="0" result="BackgroundImageFix"/>
<feBlend mode="normal" in="SourceGraphic" in2="BackgroundImageFix" result="shape"/>
<feGaussianBlur stdDeviation="50" result="effect1_foregroundBlur_102_21"/>
</filter>
<linearGradient id="paint0_linear_102_21" x1="157" y1="-9" x2="157" y2="307" gradientUnits="userSpaceOnUse">
<stop stop-color="#FF84CE"/>
<stop offset="1" stop-color="#923DFF"/>
</linearGradient>
</defs>
</svg>
