<svg width="512" height="512" viewBox="0 0 512 512" fill="none" xmlns="http://www.w3.org/2000/svg">
<rect width="512" height="512" rx="256" fill="url(#paint0_linear_489_517)"/>
<path d="M364.092 140.585L350.071 145.248C326.043 153.578 300.384 156.134 275.179 152.709C248.694 148.608 221.585 152.252 197.132 163.2C184.169 168.708 172.793 177.363 164.038 188.377C155.284 199.392 149.43 212.417 147.01 226.265C144.548 239.583 144.799 253.259 147.75 266.477C150.701 279.696 156.29 292.186 164.185 303.202C163.484 305.65 162.783 308.098 162.198 310.546C157.453 330.678 155.1 351.298 155.188 371.979H178.555C179.654 355.051 181.957 338.222 185.449 321.62C201.659 330.354 219.838 334.808 238.259 334.56C255.439 334.548 272.443 331.1 288.265 324.418C377.177 286.533 365.494 160.519 365.494 155.273L364.092 140.585ZM279.152 302.969C248.657 315.908 212.204 313.694 191.758 297.723C195.214 286.195 199.956 275.09 205.895 264.617C210.513 257.08 215.96 250.081 222.135 243.751C228.446 237.353 235.553 231.79 243.283 227.198C259.255 217.669 276.969 211.408 295.392 208.78V197.122C274.195 196.39 253.129 200.706 233.936 209.712C214.312 219.266 197.67 233.976 185.799 252.261C181.397 259.244 177.492 266.528 174.116 274.059C168.701 260.238 167.166 245.205 169.676 230.578C171.321 220.338 175.552 210.684 181.97 202.526C188.388 194.369 196.783 187.976 206.363 183.95C220.332 177.435 235.574 174.091 250.994 174.158C258.238 174.158 265.365 174.857 272.843 175.44C296.26 178.455 320.037 177.071 342.944 171.36C342.127 203.534 336.285 278.722 279.152 302.969Z" fill="white"/>
<defs>
<linearGradient id="paint0_linear_489_517" x1="2.08074e-06" y1="128" x2="464.903" y2="174.433" gradientUnits="userSpaceOnUse">
<stop stop-color="#306F6D"/>
<stop offset="1" stop-color="#42A18A"/>
</linearGradient>
</defs>
</svg>
