<svg width="598" height="598" viewBox="0 0 598 598" fill="none" xmlns="http://www.w3.org/2000/svg">
<path d="M298.629 0.0940245C133.753 0.0940413 0.0944353 133.753 0.094452 298.629C0.0944688 463.505 133.753 597.164 298.629 597.164C463.505 597.164 597.164 463.505 597.164 298.629C597.164 133.753 463.505 0.0940077 298.629 0.0940245Z" fill="#0D1F2F"/>
<path d="M298.623 247.283C270.264 247.283 247.275 270.272 247.275 298.631C247.275 326.99 270.264 349.979 298.623 349.979C326.981 349.979 349.971 326.99 349.971 298.631C349.971 270.272 326.981 247.283 298.623 247.283Z" fill="#FFDA17"/>
<path d="M298.629 187.574C237.295 187.574 187.574 237.295 187.574 298.629C187.574 359.963 237.295 409.684 298.629 409.684C359.963 409.684 409.684 359.963 409.684 298.629C409.684 237.295 359.963 187.574 298.629 187.574Z" stroke="#7FA7AE" stroke-opacity="0.5" stroke-width="1.19414"/>
<path d="M238.921 193.543C231.667 193.543 225.786 199.424 225.786 206.679C225.786 213.933 231.667 219.814 238.921 219.814C246.176 219.814 252.057 213.933 252.057 206.679C252.057 199.424 246.176 193.543 238.921 193.543Z" fill="#7FA7AE"/>
<path d="M238.92 191.155C230.346 191.155 223.396 198.105 223.396 206.678C223.396 215.252 230.346 222.202 238.92 222.202C247.493 222.202 254.443 215.252 254.443 206.678C254.443 198.105 247.493 191.155 238.92 191.155Z" fill="#7FA7AE" fill-opacity="0.8"/>
<path d="M298.624 150.557C216.845 150.557 150.551 216.852 150.551 298.63C150.551 380.409 216.845 446.704 298.624 446.704C380.403 446.704 446.697 380.409 446.697 298.63C446.697 216.852 380.403 150.557 298.624 150.557Z" stroke="#9F88E2" stroke-opacity="0.5" stroke-width="1.19414"/>
<path d="M437.15 336.842C431.874 336.842 427.597 341.119 427.597 346.395C427.597 351.671 431.874 355.948 437.15 355.948C442.426 355.948 446.703 351.671 446.703 346.395C446.703 341.119 442.426 336.842 437.15 336.842Z" fill="#9F88E2"/>
<path d="M438.348 334.455C431.753 334.455 426.406 339.801 426.406 346.396C426.406 352.991 431.753 358.337 438.348 358.337C444.943 358.337 450.289 352.991 450.289 346.396C450.289 339.801 444.943 334.455 438.348 334.455Z" fill="#9F88E2" fill-opacity="0.8"/>
<path d="M438.347 329.677C429.113 329.677 421.629 337.162 421.629 346.395C421.629 355.628 429.113 363.113 438.347 363.113C447.58 363.113 455.064 355.628 455.064 346.395C455.064 337.162 447.58 329.677 438.347 329.677Z" stroke="#9F88E2" stroke-width="1.19414"/>
<path d="M298.623 113.539C196.4 113.539 113.532 196.408 113.532 298.631C113.532 400.854 196.4 483.723 298.623 483.723C400.847 483.723 483.715 400.854 483.715 298.631C483.715 196.408 400.846 113.539 298.623 113.539Z" stroke="#F2F8CA" stroke-opacity="0.5" stroke-width="1.19414"/>
<path d="M298.632 76.518C175.964 76.518 76.5224 175.96 76.5224 298.628C76.5224 421.296 175.964 520.738 298.632 520.738C421.3 520.738 520.742 421.296 520.742 298.628C520.742 175.96 421.3 76.518 298.632 76.518Z" stroke="#F6D2B1" stroke-opacity="0.5" stroke-width="1.19414"/>
<path d="M90.8426 216.233C84.907 216.233 80.0953 221.044 80.0953 226.98C80.0953 232.915 84.907 237.727 90.8426 237.727C96.7781 237.727 101.59 232.915 101.59 226.98C101.59 221.044 96.7781 216.233 90.8426 216.233Z" fill="#F6D2B1"/>
<path d="M89.6516 213.844C82.397 213.844 76.516 219.725 76.516 226.98C76.516 234.234 82.397 240.115 89.6516 240.115C96.9061 240.115 102.787 234.234 102.787 226.98C102.787 219.725 96.9061 213.844 89.6516 213.844Z" fill="#F6D2B1" fill-opacity="0.8"/>
<path d="M298.628 39.5028C155.515 39.5028 39.4993 155.518 39.4993 298.631C39.4993 441.744 155.515 557.759 298.628 557.759C441.74 557.759 557.756 441.744 557.756 298.631C557.756 155.518 441.74 39.5028 298.628 39.5028Z" stroke="#EB7BF1" stroke-opacity="0.5" stroke-width="1.19414"/>
<path d="M282.13 27.4697C274.876 27.4697 268.995 33.3506 268.995 40.6052C268.995 47.8597 274.876 53.7407 282.13 53.7407C289.385 53.7407 295.266 47.8597 295.266 40.6052C295.266 33.3506 289.385 27.4697 282.13 27.4697Z" fill="#EB7BF1"/>
<path d="M283.32 25.0813C274.746 25.0813 267.796 32.0315 267.796 40.6051C267.796 49.1787 274.746 56.1289 283.32 56.1289C291.894 56.1289 298.844 49.1787 298.844 40.6051C298.844 32.0315 291.893 25.0813 283.32 25.0813Z" fill="#EB7BF1" fill-opacity="0.8"/>
<path d="M371.391 174.72C370.025 179.816 373.049 185.055 378.146 186.42C383.242 187.786 388.48 184.761 389.846 179.665C391.211 174.569 388.187 169.331 383.091 167.965C377.994 166.599 372.756 169.624 371.391 174.72Z" fill="#9F88E2"/>
<path d="M369.389 172.945C367.682 179.315 371.463 185.863 377.833 187.57C384.203 189.277 390.751 185.497 392.458 179.126C394.165 172.756 390.385 166.208 384.014 164.501C377.644 162.794 371.096 166.575 369.389 172.945Z" fill="#9F88E2" fill-opacity="0.8"/>
<path d="M364.775 171.712C362.385 180.63 367.678 189.797 376.596 192.187C385.515 194.577 394.682 189.284 397.072 180.366C399.461 171.447 394.169 162.28 385.25 159.89C376.332 157.501 367.165 162.793 364.775 171.712Z" stroke="#9F88E2" stroke-width="1.19414"/>
</svg>
